<svg xmlns="http://www.w3.org/2000/svg" viewBox="0 0 36 36"><defs><style>.cls-1{fill:none;}</style></defs><g id="Layer_2" data-name="Layer 2"><g id="Layer_1-2" data-name="Layer 1"><rect class="cls-1" width="36" height="36"/><path d="M27,25a2.19,2.19,0,0,1-2-2.33V13.33A2.19,2.19,0,0,1,27,11a2.19,2.19,0,0,1,2,2.33v9.34A2.19,2.19,0,0,1,27,25ZM9,25a2.19,2.19,0,0,1-2-2.33V13.33A2.19,2.19,0,0,1,9,11a2.19,2.19,0,0,1,2,2.33v9.34A2.19,2.19,0,0,1,9,25Zm23-3a2,2,0,0,1-2-2V16a2,2,0,0,1,4,0v4A2,2,0,0,1,32,22ZM4,22a2,2,0,0,1-2-2V16a2,2,0,0,1,4,0v4A2,2,0,0,1,4,22Zm18-2H14a2,2,0,0,1,0-4h8a2,2,0,0,1,0,4Z"/></g></g></svg>