<svg xmlns="http://www.w3.org/2000/svg" viewBox="0 0 24 24"><defs><style>.cls-1{fill:none;}.cls-2{fill:#231f20;}</style></defs><g id="Layer_2" data-name="Layer 2"><g id="Layer_1-2" data-name="Layer 1"><rect class="cls-1" width="24" height="24"/><path class="cls-2" d="M18,21.5H6A3.5,3.5,0,0,1,2.5,18V12A3.51,3.51,0,0,1,3.68,9.39l6-5.33a3.51,3.51,0,0,1,4.66,0l6,5.33A3.51,3.51,0,0,1,21.5,12v6A3.5,3.5,0,0,1,18,21.5ZM12,6.18a.5.5,0,0,0-.33.12l-6,5.33A.52.52,0,0,0,5.5,12v6a.51.51,0,0,0,.5.5H18a.51.51,0,0,0,.5-.5V12a.52.52,0,0,0-.17-.38l-6-5.33A.5.5,0,0,0,12,6.18Z"/></g></g></svg>