<svg xmlns="http://www.w3.org/2000/svg" xmlns:xlink="http://www.w3.org/1999/xlink" viewBox="0 0 32 32"><defs><style>.cls-1{fill:url(#linear-gradient);}.cls-2{fill:url(#linear-gradient-2);}.cls-3{fill:url(#linear-gradient-3);}.cls-4{fill:url(#linear-gradient-4);}.cls-5{fill:url(#linear-gradient-5);}.cls-6{fill:url(#linear-gradient-6);}</style><linearGradient id="linear-gradient" x1="16" y1="32" x2="16" gradientUnits="userSpaceOnUse"><stop offset="0" stop-color="#0f0f10"/><stop offset="1" stop-color="#3f4040"/></linearGradient><linearGradient id="linear-gradient-2" x1="16" y1="14.5" x2="16" y2="17.5" gradientUnits="userSpaceOnUse"><stop offset="0" stop-color="#fff"/><stop offset="1" stop-color="#afaeae"/></linearGradient><linearGradient id="linear-gradient-3" x1="9" y1="10.5" x2="9" y2="21.5" gradientUnits="userSpaceOnUse"><stop offset="0.01" stop-color="#b3d234"/><stop offset="1" stop-color="#719b40"/></linearGradient><linearGradient id="linear-gradient-4" x1="23" y1="10.5" x2="23" y2="21.5" gradientUnits="userSpaceOnUse"><stop offset="0" stop-color="#b3d234"/><stop offset="1" stop-color="#719b40"/></linearGradient><linearGradient id="linear-gradient-5" x1="27" y1="12.5" x2="27" y2="19.5" xlink:href="#linear-gradient-4"/><linearGradient id="linear-gradient-6" x1="5" y1="12.5" x2="5" y2="19.5" xlink:href="#linear-gradient-4"/></defs><g id="Layer_2" data-name="Layer 2"><g id="Layer_1-2" data-name="Layer 1"><rect class="cls-1" width="32" height="32"/><path class="cls-2" d="M19,14.5H13a1.5,1.5,0,0,0,0,3h6a1.5,1.5,0,0,0,0-3Z"/><path class="cls-3" d="M9,10.5A1.5,1.5,0,0,0,7.5,12v8a1.5,1.5,0,0,0,3,0V12A1.5,1.5,0,0,0,9,10.5Z"/><path class="cls-4" d="M23,10.5A1.5,1.5,0,0,0,21.5,12v8a1.5,1.5,0,0,0,3,0V12A1.5,1.5,0,0,0,23,10.5Z"/><path class="cls-5" d="M27,12.5A1.5,1.5,0,0,0,25.5,14v4a1.5,1.5,0,0,0,3,0V14A1.5,1.5,0,0,0,27,12.5Z"/><path class="cls-6" d="M5,12.5A1.5,1.5,0,0,0,3.5,14v4a1.5,1.5,0,0,0,3,0V14A1.5,1.5,0,0,0,5,12.5Z"/></g></g></svg>