<?xml version="1.0" encoding="UTF-8"?>
<svg id="Layer_2" data-name="Layer 2" xmlns="http://www.w3.org/2000/svg" viewBox="0 0 93.26 82.28">
  <defs>
    <style>
      .cls-1 {
        fill: none;
        opacity: .5;
      }

      .cls-2 {
        fill: #caff00;
      }
    </style>
  </defs>
  <g id="Layer_1-2" data-name="Layer 1">
    <g class="cls-1">
      <path class="cls-2" d="m8.35,32.25h1.95c1.66,0,2.73-1.17,2.73-2.83V8.86c0-1.66-1.07-2.73-2.73-2.73h-1.95c-1.66,0-2.78,1.07-2.78,2.73v20.56c0,1.66,1.12,2.83,2.78,2.83Z"/>
      <path class="cls-2" d="m83.01,32.25h1.95c1.66,0,2.73-1.17,2.73-2.83V8.86c0-1.66-1.07-2.73-2.73-2.73h-1.95c-1.66,0-2.78,1.07-2.78,2.73v20.56c0,1.66,1.12,2.83,2.78,2.83Z"/>
      <path class="cls-2" d="m2.34,21.56h88.57c1.32,0,2.34-1.07,2.34-2.39s-1.03-2.34-2.34-2.34H2.34c-1.32,0-2.34,1.03-2.34,2.34s1.03,2.39,2.34,2.39Z"/>
    </g>
    <g>
      <circle class="cls-2" cx="46.63" cy="8.5" r="8.5"/>
      <path class="cls-2" d="m55.62,29.86v9.37h0v4.78l8.15,11.85c.34.68.44,1.17.44,1.9v20.61c0,2.15-1.76,3.91-4,3.91s-3.96-1.76-3.96-3.91v-19.43l-8.98-7.28c-.16-.24-.39-.34-.62-.35-.23,0-.48.1-.64.35l-8.98,7.28v19.43c0,2.15-1.81,3.91-3.96,3.91s-4-1.76-4-3.91v-20.61c0-.73.1-1.22.44-1.9l8.15-11.8v-14.24l-7.23,4.58c-1.84,1.09-4.36.64-5.5-1.51l-4.43-8.23c-1.03-1.94-.33-4.36,1.65-5.42s4.36-.33,5.42,1.65l2.69,5.04,5.25-4.43.05-.04.13-.11s0,0,0,0c1.7-1.38,3.85-2.12,6.28-2.12h9.33c2.47,0,4.62.75,6.31,2.13l.07.06.07.06s0,0,0,0l5.27,4.46,2.69-5.04c1.06-1.98,3.39-2.73,5.42-1.65s2.68,3.48,1.65,5.42l-4.75,8.33c-1.39,2.5-4.12,3.21-6.31,1.73l-6.08-4.87Z"/>
    </g>
  </g>
</svg>