<?xml version="1.0" encoding="UTF-8"?>
<svg id="Layer_2" data-name="Layer 2" xmlns="http://www.w3.org/2000/svg" viewBox="0 0 93.26 88.29">
  <defs>
    <style>
      .cls-1 {
        fill: none;
        opacity: .5;
      }

      .cls-2 {
        fill: #caff00;
      }
    </style>
  </defs>
  <g id="Layer_1-2" data-name="Layer 1">
    <g class="cls-1">
      <path class="cls-2" d="m8.35,32.71h1.95c1.66,0,2.73-1.17,2.73-2.83V9.32c0-1.66-1.07-2.73-2.73-2.73h-1.95c-1.66,0-2.78,1.07-2.78,2.73v20.56c0,1.66,1.12,2.83,2.78,2.83Z"/>
      <path class="cls-2" d="m83.01,32.71h1.95c1.66,0,2.73-1.17,2.73-2.83V9.32c0-1.66-1.07-2.73-2.73-2.73h-1.95c-1.66,0-2.78,1.07-2.78,2.73v20.56c0,1.66,1.12,2.83,2.78,2.83Z"/>
      <path class="cls-2" d="m2.34,22.02h88.57c1.32,0,2.34-1.07,2.34-2.39s-1.03-2.34-2.34-2.34H2.34c-1.32,0-2.34,1.03-2.34,2.34s1.03,2.39,2.34,2.39Z"/>
    </g>
    <g>
      <circle class="cls-2" cx="46.65" cy="8.5" r="8.5"/>
      <path class="cls-2" d="m67.01,16.23c-2.29,0-4,1.76-4,4v5.71l-5.27-4.46s0,0,0,0l-.07-.06-.07-.06c-1.69-1.38-3.84-2.13-6.31-2.13h-9.33c-2.43,0-4.59.75-6.28,2.12,0,0,0,0,0,0l-.13.11-.05.04-5.25,4.43v-5.71c0-2.25-1.71-4-4-4s-4,1.81-4,4v14.06c0,2.43,2,4.02,4.14,3.92v.02c.2,0,.4-.04.61-.08.02,0,.04,0,.07-.01.18-.04.36-.09.54-.16.04-.02.08-.03.12-.04.16-.06.32-.15.48-.23.05-.03.1-.05.14-.08.2-.12.39-.25.58-.41l8.73-7.39v14.24l-8.15,17.8c-.34.68-.44,1.17-.44,1.9v20.61c0,2.15,1.76,3.91,4,3.91s3.96-1.76,3.96-3.91v-19.43l8.98-13.28c.17-.25.41-.35.64-.35.23,0,.46.11.62.35l8.98,13.28v19.43c0,2.15,1.81,3.91,3.96,3.91s4-1.76,4-3.91v-20.61c0-.73-.1-1.22-.44-1.9l-8.15-17.85v-4.78h0v-9.37l8.7,7.37c.19.16.38.29.58.41.05.03.1.05.15.08.16.09.32.17.48.23.04.02.08.03.13.05.18.06.36.12.54.16.02,0,.05,0,.07.01.21.04.42.07.62.08v-.02c2.13.09,4.12-1.49,4.12-3.92v-14.06c0-2.2-1.76-4-4-4Z"/>
    </g>
  </g>
</svg>