<svg xmlns="http://www.w3.org/2000/svg" viewBox="0 0 32 32"><defs><style>.cls-1{fill:none;}</style></defs><g id="Layer_2" data-name="Layer 2"><g id="Layer_1-2" data-name="Layer 1"><rect class="cls-1" width="32" height="32"/><path d="M19,14.5H13a1.5,1.5,0,0,0,0,3h6a1.5,1.5,0,0,0,0-3Z"/><path d="M9,10.5A1.5,1.5,0,0,0,7.5,12v8a1.5,1.5,0,0,0,3,0V12A1.5,1.5,0,0,0,9,10.5Z"/><path d="M23,10.5A1.5,1.5,0,0,0,21.5,12v8a1.5,1.5,0,0,0,3,0V12A1.5,1.5,0,0,0,23,10.5Z"/><path d="M27,12.5A1.5,1.5,0,0,0,25.5,14v4a1.5,1.5,0,0,0,3,0V14A1.5,1.5,0,0,0,27,12.5Z"/><path d="M5,12.5A1.5,1.5,0,0,0,3.5,14v4a1.5,1.5,0,0,0,3,0V14A1.5,1.5,0,0,0,5,12.5Z"/></g></g></svg>