<?xml version="1.0" encoding="UTF-8"?>
<svg id="Layer_2" data-name="Layer 2" xmlns="http://www.w3.org/2000/svg" viewBox="0 0 93.26 90.66">
  <defs>
    <style>
      .cls-1 {
        fill: #231f20;
      }
    </style>
  </defs>
  <g id="Layer_1-2" data-name="Layer 1">
    <g id="Regular-S">
      <path class="cls-1" d="m8.82,61.57h1.95c1.66,0,2.73-1.17,2.73-2.83v-20.56c0-1.66-1.07-2.73-2.73-2.73h-1.95c-1.66,0-2.78,1.07-2.78,2.73v20.56c0,1.66,1.12,2.83,2.78,2.83Z"/>
      <path class="cls-1" d="m82.85,61.57h1.95c1.66,0,2.73-1.17,2.73-2.83v-20.56c0-1.66-1.07-2.73-2.73-2.73h-1.95c-1.66,0-2.78,1.07-2.78,2.73v20.56c0,1.66,1.12,2.83,2.78,2.83Z"/>
      <path class="cls-1" d="m75.54,61.57h1.95c1.66,0,2.73-1.17,2.73-2.83v-20.56c0-1.66-1.07-2.73-2.73-2.73h-1.95c-1.66,0-2.78,1.07-2.78,2.73v20.56c0,1.66,1.12,2.83,2.78,2.83Z"/>
      <path class="cls-1" d="m15.82,61.57h1.95c1.66,0,2.73-1.17,2.73-2.83v-20.56c0-1.66-1.07-2.73-2.73-2.73h-1.95c-1.66,0-2.78,1.07-2.78,2.73v20.56c0,1.66,1.12,2.83,2.78,2.83Z"/>
      <path class="cls-1" d="m2.34,50.88h88.57c1.32,0,2.34-1.07,2.34-2.39s-1.03-2.34-2.34-2.34H2.34c-1.32,0-2.34,1.03-2.34,2.34s1.03,2.39,2.34,2.39Z"/>
      <g>
        <circle class="cls-1" cx="46.6" cy="8.5" r="8.5"/>
        <path class="cls-1" d="m56.91,36.13c.73,0,1.32.59,1.32,1.32v14.94c0,1.95,1.56,3.52,3.47,3.52s3.52-1.56,3.52-3.52v-16.7c0-8.64-6.3-14.31-15.67-14.31h-5.81c-9.38,0-15.67,5.66-15.67,14.31v16.7c0,1.95,1.56,3.52,3.47,3.52s3.52-1.56,3.52-3.52v-14.94c0-.73.59-1.32,1.27-1.32.73,0,1.32.59,1.32,1.32v4.83h18.02v-4.83c0-.73.59-1.32,1.27-1.32Z"/>
      </g>
      <path class="cls-1" d="m30.86,90.58c1.9.39,4.05-.59,4.64-3.27l3.61-16.7,7.57-13.62,7.52,13.62,3.61,16.7c.59,2.78,2.93,3.71,4.83,3.22,1.86-.49,3.32-2.25,2.78-4.93l-3.71-17.24c-.05-.34-.1-.59-.24-.93l-4.49-12.7h-20.61l-4.54,12.7c-.15.34-.2.59-.24.93l-3.66,17.24c-.59,2.78,1.07,4.59,2.93,4.98Z"/>
    </g>
  </g>
</svg>