<svg xmlns="http://www.w3.org/2000/svg" viewBox="0 0 24 24"><defs><style>.cls-1{fill:none;}.cls-2{fill-rule:evenodd;}</style></defs><g id="Layer_2" data-name="Layer 2"><g id="Layer_1-2" data-name="Layer 1"><g id="Misc_Pencil" data-name="Misc/Pencil"><rect id="Bounds" class="cls-1" width="24" height="24"/><path class="cls-2" d="M15.88,3.71a3,3,0,0,1,4.24,0l.17.17a3,3,0,0,1,0,4.24L18.56,9.86,8.71,19.71a1,1,0,0,1-.47.26l-4,1A1,1,0,0,1,3,20.24a1,1,0,0,1,0-.48l1-4a1,1,0,0,1,.26-.47l9.91-9.9,1.68-1.68Zm2.83,1.41a1,1,0,0,0-1.42,0l-1,1,1.55,1.61,1-1a1,1,0,0,0,0-1.42Zm-2.26,4L14.89,7.52l-9,9-.53,2.12,2.12-.53,9-9Z"/></g></g></g></svg>