<svg xmlns="http://www.w3.org/2000/svg" xmlns:xlink="http://www.w3.org/1999/xlink" viewBox="0 0 64 64"><defs><style>.cls-1{fill:none;}.cls-2{fill:url(#linear-gradient);}.cls-3{fill:#fff;}</style><linearGradient id="linear-gradient" x1="32" y1="9" x2="32" y2="57" gradientUnits="userSpaceOnUse"><stop offset="0" stop-color="#e6ff00"/><stop offset="0.2" stop-color="#d1ff00"/><stop offset="0.46" stop-color="#beff00"/><stop offset="0.72" stop-color="#b3ff00"/><stop offset="1" stop-color="#afff00"/></linearGradient></defs><g id="Layer_2" data-name="Layer 2"><g id="Layer_1-2" data-name="Layer 1"><rect class="cls-1" width="64" height="64"/><path class="cls-2" d="M43,12V24c0,2.77-.73,4.77-2.18,5.95A4.89,4.89,0,0,1,38,31V53.5a3.49,3.49,0,0,1-6,2.44,3.49,3.49,0,0,1-6-2.44V31A4.89,4.89,0,0,1,23.18,30C21.73,28.77,21,26.77,21,24V12a3,3,0,0,1,6,0v6a1,1,0,0,1-2,0V12a1,1,0,0,0-2,0V24c0,2.12.48,3.6,1.43,4.39a3.2,3.2,0,0,0,2.38.63A1,1,0,0,1,28,30V53.5a1.5,1.5,0,0,0,3,0V38a1,1,0,0,1,2,0V53.5a1.5,1.5,0,0,0,3,0V30a1,1,0,0,1,.37-.77A1,1,0,0,1,37.2,29a3.19,3.19,0,0,0,2.37-.63C40.52,27.6,41,26.12,41,24V12a1,1,0,0,0-2,0v6a1,1,0,0,1-2,0V12a3,3,0,0,1,6,0ZM26.5,22A5.5,5.5,0,1,1,32,27.5,5.51,5.51,0,0,1,26.5,22Zm2,0A3.5,3.5,0,1,0,32,18.5,3.5,3.5,0,0,0,28.5,22Z"/><path class="cls-3" d="M11,9.5A1.5,1.5,0,0,0,9.5,11v3a1.5,1.5,0,0,0,3,0V11A1.5,1.5,0,0,0,11,9.5Z"/><path class="cls-3" d="M28,11.55V14h8V11.55a3.31,3.31,0,0,1,.06-.55H27.94A3.31,3.31,0,0,1,28,11.55Z"/><path class="cls-3" d="M53,9.5A1.5,1.5,0,0,0,51.5,11v3a1.5,1.5,0,0,0,3,0V11A1.5,1.5,0,0,0,53,9.5Z"/><path class="cls-3" d="M15,8a1.5,1.5,0,0,0-1.5,1.5v6a1.5,1.5,0,0,0,3,0v-6A1.5,1.5,0,0,0,15,8Z"/><path class="cls-3" d="M49,8a1.5,1.5,0,0,0-1.5,1.5v6a1.5,1.5,0,0,0,3,0v-6A1.5,1.5,0,0,0,49,8Z"/><path class="cls-3" d="M45.25,11H43.94a3.31,3.31,0,0,1,.06.55V14h1.25a1.5,1.5,0,0,0,0-3Z"/><path class="cls-3" d="M20,11.55a3.31,3.31,0,0,1,.06-.55H18.75a1.5,1.5,0,0,0,0,3H20Z"/></g></g></svg>