<?xml version="1.0" encoding="UTF-8"?>
<svg id="Layer_2" data-name="Layer 2" xmlns="http://www.w3.org/2000/svg" viewBox="0 0 26 31.66">
  <defs>
    <style>
      .cls-1 {
        fill: #fff;
      }

      .cls-2 {
        fill: #caff00;
      }
    </style>
  </defs>
  <g id="Layer_1-2" data-name="Layer 1">
    <path class="cls-2" d="m18.88,5c-.4,0-.72.31-.75.7l-.27,3.96c-.03.53-.39.98-.91,1.13l-1.52.44c-.07.02-.14.03-.21.03h-4.44c-.07,0-.14,0-.21-.03l-1.53-.44c-.51-.15-.87-.6-.91-1.14l-.27-3.94c-.03-.39-.35-.7-.75-.7h-1c-.44,0-.78.37-.75.8l.28,4c.09,1.59,1.18,2.95,2.71,3.39l1.14.33v7.76s0,.1-.01.15l-1.81,9.04c-.08.41.18.8.59.88l1.47.29c.41.08.8-.18.88-.59l1.81-9.06h1.14l1.81,9.06c.08.41.48.67.88.59l1.47-.29c.41-.08.67-.48.59-.88l-1.81-9.04s-.01-.1-.01-.15v-7.76l1.14-.33c1.53-.44,2.62-1.8,2.71-3.37l.28-4.01c.03-.43-.31-.8-.75-.8h-1Z"/>
    <path class="cls-2" d="m10.21,5.92c-.21.52-.27,1.11-.14,1.72.25,1.17,1.23,2.11,2.4,2.31,1.89.32,3.53-1.13,3.53-2.95,0-.41-.08-.79-.23-1.14-.23-.53-.78-.86-1.36-.86h-2.81c-.6,0-1.17.35-1.39.92Z"/>
    <g>
      <rect class="cls-1" x="4.5" y="2" width="17" height="2" rx=".5" ry=".5"/>
      <rect class="cls-1" x="22" width="2" height="6" rx=".75" ry=".75"/>
      <rect class="cls-1" x="24.5" y="1" width="1.5" height="4" rx=".5" ry=".5"/>
      <rect class="cls-1" x="2" width="2" height="6" rx=".75" ry=".75"/>
      <rect class="cls-1" y="1" width="1.5" height="4" rx=".5" ry=".5"/>
    </g>
  </g>
</svg>