<svg xmlns="http://www.w3.org/2000/svg" xmlns:xlink="http://www.w3.org/1999/xlink" viewBox="0 0 128 59.98"><defs><style>.cls-1{fill:#fff;}.cls-2{fill:url(#linear-gradient);}</style><linearGradient id="linear-gradient" x1="63.6" x2="63.6" y2="28" gradientUnits="userSpaceOnUse"><stop offset="0" stop-color="#e6ff00"/><stop offset="0.2" stop-color="#d1ff00"/><stop offset="0.46" stop-color="#beff00"/><stop offset="0.72" stop-color="#b3ff00"/><stop offset="1" stop-color="#afff00"/></linearGradient></defs><g id="Layer_2" data-name="Layer 2"><g id="Layer_1-2" data-name="Layer 1"><rect class="cls-1" y="36.03" width="128" height="23.95" rx="8"/><path class="cls-2" d="M44,0H80c34.76,0,44.35,14.69,47,22.79A4,4,0,0,1,123.16,28H44a4,4,0,0,1-4-4V4A4,4,0,0,1,44,0ZM8.69,28H23.3A7,7,0,0,0,29,25.29,15.95,15.95,0,0,0,19.74.42,16,16,0,0,0,0,16a15.69,15.69,0,0,0,3.06,9.32A6.94,6.94,0,0,0,8.69,28Z"/></g></g></svg>