<svg xmlns="http://www.w3.org/2000/svg" xmlns:xlink="http://www.w3.org/1999/xlink" viewBox="0 0 81.85 128"><defs><style>.cls-1{fill:none;stroke-linecap:round;stroke-linejoin:round;stroke-width:8px;stroke:url(#linear-gradient);}.cls-2{fill:#fff;}</style><linearGradient id="linear-gradient" x1="40.92" x2="40.92" y2="128" gradientUnits="userSpaceOnUse"><stop offset="0" stop-color="#e6ff00"/><stop offset="0.2" stop-color="#d1ff00"/><stop offset="0.46" stop-color="#beff00"/><stop offset="0.72" stop-color="#b3ff00"/><stop offset="1" stop-color="#afff00"/></linearGradient></defs><g id="Layer_2" data-name="Layer 2"><g id="Layer_1-2" data-name="Layer 1"><path class="cls-1" d="M77.85,4,69.48,112.71A12.23,12.23,0,0,1,57.29,124H24.55a12.23,12.23,0,0,1-12.19-11.29L4,4Z"/><path class="cls-2" d="M18.62,43.58l5.12,66.61a2.46,2.46,0,0,0,2.46,2.27H55.65a2.46,2.46,0,0,0,2.45-2.27l5.13-66.61a2.46,2.46,0,0,0-2.46-2.66H21.07A2.46,2.46,0,0,0,18.62,43.58Z"/></g></g></svg>