<?xml version="1.0" encoding="UTF-8"?>
<svg id="Layer_2" data-name="Layer 2" xmlns="http://www.w3.org/2000/svg" viewBox="0 0 93.26 95.17">
  <defs>
    <style>
      .cls-1 {
        fill: none;
        opacity: .5;
      }

      .cls-2 {
        fill: #caff00;
      }
    </style>
  </defs>
  <g id="Layer_1-2" data-name="Layer 1">
    <g>
      <path class="cls-2" d="m66.02,8.98c-1.95-.15-3.61,1.42-3.71,3.37l-.73,13.38-4,2.88c-1.86,1.32-3.27,1.76-5.62,1.76h-10.64c-2.34,0-3.76-.44-5.62-1.76l-4-2.88-.73-13.38c-.1-1.95-1.76-3.52-3.71-3.37-1.9.15-3.37,1.76-3.27,3.71l.73,13.62c.15,2.54,1.12,4,2.88,5.22l8.45,6.2c1.03.73,1.61,1.27,1.61,3.08v50.54c0,2.1,1.66,3.81,3.81,3.81s3.81-1.71,3.81-3.81v-27.15c0-.68.63-1.32,1.37-1.32s1.37.63,1.37,1.32v27.15c0,2.1,1.66,3.81,3.81,3.81s3.81-1.71,3.81-3.81v-40.63h0v-9.9c0-1.81.59-2.34,1.61-3.08l8.45-6.2c1.76-1.22,2.73-2.69,2.88-5.22l.73-13.62c.1-1.95-1.37-3.56-3.27-3.71Z"/>
      <path class="cls-2" d="m38.3,19.29c.77,3.89,4.21,6.84,8.33,6.84s7.56-2.94,8.33-6.84h-16.66Z"/>
    </g>
    <g class="cls-1">
      <path class="cls-2" d="m8.35,26.12h1.95c1.66,0,2.73-1.17,2.73-2.83V2.73c0-1.66-1.07-2.73-2.73-2.73h-1.95c-1.66,0-2.78,1.07-2.78,2.73v20.56c0,1.66,1.12,2.83,2.78,2.83Z"/>
      <path class="cls-2" d="m83.01,26.12h1.95c1.66,0,2.73-1.17,2.73-2.83V2.73C87.7,1.07,86.62,0,84.96,0h-1.95C81.35,0,80.22,1.07,80.22,2.73v20.56c0,1.66,1.12,2.83,2.78,2.83Z"/>
      <path class="cls-2" d="m2.34,15.43h88.57c1.32,0,2.34-1.07,2.34-2.39s-1.03-2.34-2.34-2.34H2.34c-1.32,0-2.34,1.03-2.34,2.34s1.03,2.39,2.34,2.39Z"/>
    </g>
  </g>
</svg>