<?xml version="1.0" encoding="UTF-8"?>
<svg id="Layer_2" data-name="Layer 2" xmlns="http://www.w3.org/2000/svg" viewBox="0 0 77.4 78.98">
  <defs>
    <style>
      .cls-1 {
        fill: none;
      }

      .cls-1, .cls-2 {
        opacity: .5;
      }

      .cls-3, .cls-2 {
        fill: #caff00;
      }
    </style>
  </defs>
  <g id="Layer_1-2" data-name="Layer 1">
    <path class="cls-2" d="m2.06,66.26h59.97c1.2,0,2.1-1.03,2.1-2.34s-.9-2.34-2.1-2.34H2.06c-1.16,0-2.06,1.03-2.06,2.34s.9,2.34,2.06,2.34Z"/>
    <path class="cls-3" d="m17.04,45.65c0-4.69-3.81-8.5-8.59-8.5S0,40.96,0,45.65s3.81,8.54,8.45,8.54,8.59-3.81,8.59-8.54Z"/>
    <path class="cls-3" d="m77.25,48.75c-.05-1.14-1.21-4.03-3.92-4.73l-20.99-2.56-22.45-.25c-.54,0-.98-.44-.98-.98v-10.56c-1.23.28-2.51.45-3.82.45-1.38,0-2.72-.18-4.01-.5l.09,16.03c0,6.7,1.59,9.97,9.16,9.97l20.29-.02,18.04-1.24.77,20.69c.01,2.2,1.83,3.94,4.03,3.93,2.2-.01,3.94-1.78,3.93-3.98l-.15-26.24Z"/>
    <g class="cls-1">
      <circle class="cls-3" cx="25.08" cy="13.06" r="13.06"/>
    </g>
  </g>
</svg>