<svg xmlns="http://www.w3.org/2000/svg" viewBox="0 0 32 32"><defs><style>.cls-1{fill:none;}</style></defs><g id="Layer_2" data-name="Layer 2"><g id="Layer_2-2" data-name="Layer 2"><rect class="cls-1" width="32" height="32"/><path d="M30,10.87l-.8-5a1,1,0,0,0-1.61-.62l-4,3.21a1,1,0,0,0,.27,1.71l1,.37c-1.27,3.39-3.1,8.12-4.75,8-.93-.05-1.94-1.78-2.84-3.3-1.25-2.15-2.68-4.59-5.18-4.7-3.32-.16-6.24,3.87-9.47,13a1.49,1.49,0,0,0,.91,1.91,1.48,1.48,0,0,0,1.91-.91c3.75-10.57,6.1-11,6.53-11,.86,0,1.89,1.8,2.71,3.21,1.28,2.18,2.72,4.64,5.27,4.79,3.82.19,5.81-4.85,7.71-9.91l1,.37A1,1,0,0,0,30,10.87Z"/></g></g></svg>